<svg width="500" height="500" viewBox="0 0 500 500" fill="none" xmlns="http://www.w3.org/2000/svg">
<rect width="500" height="500" fill="white"/>
<path d="M180.707 249.703H193.558C197.501 249.703 200.698 246.506 200.698 242.563C200.698 238.62 197.501 235.423 193.558 235.423H180.707V249.703ZM180.707 249.703H196.414C200.357 249.703 203.554 252.899 203.554 256.842C203.554 260.785 200.357 263.982 196.414 263.982H180.707V249.703ZM178.708 275.405H202.697C207.495 275.405 209.894 275.405 211.727 274.471C213.339 273.65 214.65 272.339 215.471 270.727C216.405 268.894 216.405 266.495 216.405 261.697V237.708C216.405 232.91 216.405 230.511 215.471 228.678C214.65 227.066 213.339 225.755 211.727 224.934C209.894 224 207.495 224 202.697 224H178.708C173.91 224 171.511 224 169.678 224.934C168.066 225.755 166.755 227.066 165.934 228.678C165 230.511 165 232.91 165 237.708V261.697C165 266.495 165 268.894 165.934 270.727C166.755 272.339 168.066 273.65 169.678 274.471C171.511 275.405 173.91 275.405 178.708 275.405Z" stroke="black" stroke-width="6" stroke-linecap="round" stroke-linejoin="round"/>
<path d="M240.181 270.008C237.934 270.008 235.903 269.593 234.087 268.762C232.271 267.915 230.833 266.692 229.771 265.092C228.724 263.491 228.201 261.529 228.201 259.206C228.201 257.205 228.586 255.559 229.355 254.266C230.125 252.973 231.164 251.95 232.472 251.196C233.78 250.442 235.241 249.873 236.857 249.488C238.473 249.103 240.119 248.811 241.797 248.611C243.92 248.365 245.644 248.165 246.967 248.011C248.291 247.841 249.252 247.572 249.853 247.203C250.453 246.834 250.753 246.233 250.753 245.402V245.241C250.753 243.225 250.183 241.663 249.045 240.555C247.921 239.447 246.244 238.893 244.013 238.893C241.689 238.893 239.858 239.409 238.519 240.44C237.196 241.455 236.28 242.586 235.772 243.833L229.286 242.356C230.056 240.201 231.179 238.462 232.656 237.139C234.149 235.8 235.865 234.831 237.804 234.231C239.742 233.615 241.781 233.307 243.92 233.307C245.336 233.307 246.836 233.477 248.421 233.815C250.022 234.138 251.514 234.738 252.899 235.615C254.3 236.493 255.446 237.747 256.339 239.378C257.231 240.994 257.677 243.094 257.677 245.679V269.223H250.937V264.376H250.66C250.214 265.269 249.545 266.146 248.652 267.008C247.76 267.869 246.613 268.585 245.213 269.154C243.813 269.724 242.135 270.008 240.181 270.008ZM241.681 264.468C243.59 264.468 245.221 264.091 246.575 263.337C247.944 262.583 248.983 261.599 249.691 260.383C250.414 259.152 250.776 257.836 250.776 256.436V251.865C250.53 252.112 250.053 252.343 249.345 252.558C248.652 252.758 247.86 252.935 246.967 253.089C246.075 253.227 245.205 253.358 244.359 253.481C243.513 253.589 242.805 253.681 242.235 253.758C240.897 253.928 239.673 254.212 238.565 254.612C237.473 255.012 236.596 255.589 235.934 256.343C235.288 257.082 234.964 258.067 234.964 259.298C234.964 261.006 235.595 262.299 236.857 263.176C238.119 264.038 239.727 264.468 241.681 264.468ZM293.438 242.425L287.183 243.533C286.921 242.733 286.505 241.971 285.936 241.248C285.382 240.524 284.628 239.932 283.674 239.47C282.72 239.009 281.527 238.778 280.096 238.778C278.142 238.778 276.511 239.216 275.203 240.093C273.895 240.955 273.241 242.071 273.241 243.44C273.241 244.625 273.679 245.579 274.556 246.303C275.434 247.026 276.849 247.618 278.804 248.08L284.436 249.373C287.698 250.127 290.129 251.288 291.73 252.858C293.33 254.428 294.13 256.467 294.13 258.975C294.13 261.098 293.515 262.991 292.284 264.653C291.068 266.3 289.368 267.592 287.183 268.531C285.013 269.47 282.497 269.939 279.635 269.939C275.664 269.939 272.425 269.093 269.917 267.4C267.409 265.692 265.87 263.268 265.3 260.129L271.971 259.113C272.387 260.852 273.241 262.168 274.533 263.06C275.826 263.938 277.511 264.376 279.588 264.376C281.85 264.376 283.659 263.907 285.013 262.968C286.367 262.014 287.044 260.852 287.044 259.483C287.044 258.375 286.629 257.444 285.798 256.69C284.982 255.936 283.728 255.366 282.035 254.982L276.034 253.666C272.725 252.912 270.279 251.712 268.694 250.065C267.124 248.419 266.339 246.333 266.339 243.81C266.339 241.717 266.924 239.886 268.093 238.316C269.263 236.747 270.879 235.523 272.941 234.646C275.003 233.754 277.365 233.307 280.027 233.307C283.859 233.307 286.875 234.138 289.075 235.8C291.276 237.447 292.73 239.655 293.438 242.425ZM308.066 257.198L308.02 248.772H309.22L323.347 233.769H331.61L315.499 250.85H314.414L308.066 257.198ZM301.719 269.223V221.951H308.62V269.223H301.719ZM324.109 269.223L311.413 252.373L316.168 247.549L332.58 269.223H324.109Z" fill="black"/>
</svg>
